<svg width="27" height="25" viewBox="0 0 27 25" fill="none" xmlns="http://www.w3.org/2000/svg">
<path d="M5.29688 24.8203C4.89062 24.8203 4.58203 24.7227 4.37109 24.5273C4.16016 24.3398 4.05078 24.1016 4.04297 23.8125C4.03516 23.5312 4.13281 23.2539 4.33594 22.9805C4.51562 22.7539 4.73047 22.4609 4.98047 22.1016C5.23047 21.75 5.48047 21.3789 5.73047 20.9883C5.98047 20.5977 6.19531 20.2305 6.375 19.8867C5.14062 19.3164 4.05859 18.5742 3.12891 17.6602C2.20703 16.7461 1.48828 15.7148 0.972656 14.5664C0.464844 13.418 0.210938 12.2031 0.210938 10.9219C0.210938 9.44531 0.550781 8.0625 1.23047 6.77344C1.91797 5.48438 2.86719 4.35547 4.07812 3.38672C5.29688 2.41016 6.71094 1.64844 8.32031 1.10156C9.92969 0.546875 11.6562 0.269531 13.5 0.269531C15.3438 0.269531 17.0703 0.546875 18.6797 1.10156C20.2891 1.64844 21.6992 2.41016 22.9102 3.38672C24.1289 4.35547 25.0781 5.48438 25.7578 6.77344C26.4453 8.0625 26.7891 9.44531 26.7891 10.9219C26.7891 12.1484 26.5547 13.3086 26.0859 14.4023C25.625 15.4883 24.9648 16.4766 24.1055 17.3672C23.2539 18.2578 22.2344 19.0234 21.0469 19.6641C19.8672 20.2969 18.5547 20.7773 17.1094 21.1055C15.6641 21.4336 14.125 21.5742 12.4922 21.5273C11.7031 22.0977 10.8516 22.6328 9.9375 23.1328C9.02344 23.6328 8.15234 24.0391 7.32422 24.3516C6.49609 24.6641 5.82031 24.8203 5.29688 24.8203ZM6.52734 22.875C6.87891 22.7266 7.32422 22.5 7.86328 22.1953C8.40234 21.8906 8.96094 21.5508 9.53906 21.1758C10.1172 20.8086 10.6445 20.4531 11.1211 20.1094C11.3398 19.9375 11.5508 19.8125 11.7539 19.7344C11.9648 19.6484 12.1914 19.6055 12.4336 19.6055C12.668 19.6133 12.875 19.6211 13.0547 19.6289C13.2344 19.6289 13.3828 19.6289 13.5 19.6289C15.0781 19.6289 16.5547 19.4023 17.9297 18.9492C19.3047 18.4961 20.5078 17.8711 21.5391 17.0742C22.5781 16.2773 23.3906 15.3516 23.9766 14.2969C24.5625 13.2422 24.8555 12.1172 24.8555 10.9219C24.8555 9.71875 24.5625 8.59375 23.9766 7.54688C23.3906 6.49219 22.5781 5.56641 21.5391 4.76953C20.5078 3.96484 19.3047 3.33594 17.9297 2.88281C16.5547 2.42969 15.0781 2.20312 13.5 2.20312C11.9219 2.20312 10.4453 2.42969 9.07031 2.88281C7.69531 3.33594 6.48828 3.96484 5.44922 4.76953C4.41797 5.56641 3.60938 6.49219 3.02344 7.54688C2.44531 8.59375 2.15625 9.71875 2.15625 10.9219C2.15625 11.9609 2.38281 12.9492 2.83594 13.8867C3.28906 14.8242 3.94531 15.6836 4.80469 16.4648C5.67188 17.2383 6.71875 17.9102 7.94531 18.4805C8.32031 18.6602 8.53906 18.8789 8.60156 19.1367C8.66406 19.3945 8.61328 19.6758 8.44922 19.9805C8.24609 20.3555 7.94531 20.8086 7.54688 21.3398C7.14844 21.8789 6.78516 22.3516 6.45703 22.7578C6.42578 22.7969 6.41797 22.8281 6.43359 22.8516C6.44922 22.8828 6.48047 22.8906 6.52734 22.875ZM8.03906 12.7383C7.5625 12.7383 7.15625 12.5703 6.82031 12.2344C6.49219 11.8984 6.32812 11.4961 6.32812 11.0273C6.32812 10.5586 6.49219 10.1562 6.82031 9.82031C7.15625 9.48438 7.5625 9.31641 8.03906 9.31641C8.5 9.31641 8.89844 9.48438 9.23438 9.82031C9.57031 10.1562 9.73828 10.5586 9.73828 11.0273C9.73828 11.4961 9.57031 11.8984 9.23438 12.2344C8.90625 12.5703 8.50781 12.7383 8.03906 12.7383ZM13.5 12.7383C13.0312 12.7383 12.6289 12.5703 12.293 12.2344C11.9648 11.8984 11.8008 11.4961 11.8008 11.0273C11.8008 10.5586 11.9648 10.1562 12.293 9.82031C12.6289 9.48438 13.0312 9.31641 13.5 9.31641C13.9688 9.31641 14.3711 9.48438 14.707 9.82031C15.043 10.1562 15.2109 10.5586 15.2109 11.0273C15.2109 11.4961 15.043 11.8984 14.707 12.2344C14.3711 12.5703 13.9688 12.7383 13.5 12.7383ZM18.9727 12.7383C18.5039 12.7383 18.1016 12.5703 17.7656 12.2344C17.4297 11.8984 17.2617 11.4961 17.2617 11.0273C17.2617 10.5586 17.4297 10.1562 17.7656 9.82031C18.1016 9.48438 18.5039 9.31641 18.9727 9.31641C19.4414 9.31641 19.8398 9.48438 20.168 9.82031C20.5039 10.1562 20.6719 10.5586 20.6719 11.0273C20.6719 11.4961 20.5039 11.8984 20.168 12.2344C19.8398 12.5703 19.4414 12.7383 18.9727 12.7383Z" fill="white" fill-opacity="0.42"/>
</svg>
