<svg width="390" height="94" viewBox="0 0 390 94" fill="none" xmlns="http://www.w3.org/2000/svg">
<g filter="url(#filter0_b_603_2787)">
<path d="M0 12C0 5.37258 5.37258 0 12 0H378C384.627 0 390 5.37258 390 12V96H0V12Z" fill="white" fill-opacity="0.02"/>
<path d="M60.7667 24.25C64.2184 24.25 67.0167 21.4518 67.0167 18C67.0167 14.5482 64.2184 11.75 60.7667 11.75C57.3149 11.75 54.5167 14.5482 54.5167 18C54.5167 21.4518 57.3149 24.25 60.7667 24.25ZM60.7667 24.25C55.2438 24.25 50.7667 28.7272 50.7667 34.25M60.7667 24.25C66.2895 24.25 70.7667 28.7272 70.7667 34.25" stroke="white" stroke-opacity="0.42" stroke-width="2" stroke-linecap="round" stroke-linejoin="round"/>
<path d="M39.6919 56.192C37.8199 56.192 35.7679 54.848 35.7679 51.812C35.7679 48.764 37.8199 47.408 39.6919 47.408C41.4199 47.408 43.0999 48.428 43.4479 50.768L42.2119 50.9C41.9359 49.472 41.1799 48.488 39.6919 48.488C37.9759 48.488 36.9919 49.928 36.9919 51.812C36.9919 53.684 37.9759 55.112 39.6919 55.112C41.1799 55.112 41.9479 54.236 42.2239 52.772L43.4479 52.892C43.0999 55.232 41.4199 56.192 39.6919 56.192ZM47.661 56.192C46.173 56.192 44.721 55.196 44.721 53.012C44.721 50.84 46.173 49.808 47.661 49.808C49.137 49.808 50.577 50.84 50.577 53.012C50.577 55.196 49.137 56.192 47.661 56.192ZM45.945 53.012C45.945 54.296 46.497 55.16 47.661 55.16C48.813 55.16 49.377 54.296 49.377 53.012C49.377 51.74 48.813 50.84 47.661 50.84C46.497 50.84 45.945 51.74 45.945 53.012ZM55.8208 52.112C55.8208 51.08 55.3168 50.84 54.7168 50.84C53.9968 50.84 53.1928 51.356 53.1928 53.168V56H51.9688V50H53.1928V51.188C53.4688 50.36 54.1168 49.808 55.1608 49.808C56.3968 49.808 57.0448 50.648 57.0448 52.052V56H55.8208V52.112ZM60.8917 56C59.7877 56 59.1877 55.52 59.1877 54.308V51.032H58.1677V50H59.1877V48.188L60.3037 48.068V50H61.8637V51.032H60.3037V54.104C60.3037 54.848 60.5317 54.968 61.1557 54.968H61.8637V56H60.8917ZM65.03 56.18C64.022 56.18 63.014 55.568 63.014 54.404C63.014 53.048 64.082 52.592 65.594 52.376C66.314 52.268 67.142 52.208 66.878 51.44C66.71 50.948 66.074 50.84 65.63 50.84C64.754 50.84 64.334 51.272 64.334 51.872L63.122 51.752C63.122 50.744 64.034 49.808 65.63 49.808C66.986 49.808 68.09 50.408 68.09 51.968V56H66.926V54.776C66.662 55.556 66.002 56.18 65.03 56.18ZM64.238 54.368C64.238 54.824 64.67 55.148 65.21 55.148C66.086 55.148 66.926 54.512 66.926 53.096V52.76C66.71 53.048 66.206 53.204 65.45 53.324C64.622 53.456 64.238 53.84 64.238 54.368ZM72.3056 56.192C70.8056 56.192 69.3656 55.196 69.3656 53.024C69.3656 50.852 70.8056 49.808 72.3056 49.808C73.7576 49.808 74.7896 50.444 75.0536 52.22L73.8416 52.34C73.6496 51.416 73.2536 50.84 72.3056 50.84C71.1296 50.84 70.5896 51.848 70.5896 53.024C70.5896 54.224 71.1296 55.16 72.3056 55.16C73.2176 55.16 73.6496 54.668 73.8416 53.732L75.0536 53.852C74.8016 55.604 73.7456 56.192 72.3056 56.192ZM78.5401 56C77.4361 56 76.8361 55.52 76.8361 54.308V51.032H75.8161V50H76.8361V48.188L77.9521 48.068V50H79.5121V51.032H77.9521V54.104C77.9521 54.848 78.1801 54.968 78.8041 54.968H79.5121V56H78.5401ZM83.3264 56.192C81.8864 56.192 80.5424 55.412 80.5424 53.816L81.7064 53.696C81.7064 54.692 82.5584 55.16 83.3264 55.16C84.0824 55.16 84.6584 54.884 84.6584 54.284C84.6584 53.648 84.1064 53.48 83.4944 53.396L82.5704 53.276C81.6224 53.144 80.8784 52.532 80.8784 51.572C80.8784 50.456 81.9224 49.808 83.2424 49.808C84.5624 49.808 85.5704 50.528 85.5704 51.692L84.4064 51.812C84.4064 51.176 83.9624 50.84 83.2424 50.84C82.6064 50.84 82.0904 51.092 82.0904 51.596C82.0904 52.016 82.4024 52.22 83.0384 52.304L83.8544 52.424C84.8744 52.556 85.8824 53.072 85.8824 54.272C85.8824 55.472 84.7664 56.192 83.3264 56.192Z" fill="white" fill-opacity="0.6"/>
<path d="M134.297 34.8203C133.891 34.8203 133.582 34.7227 133.371 34.5273C133.16 34.3398 133.051 34.1016 133.043 33.8125C133.035 33.5312 133.133 33.2539 133.336 32.9805C133.516 32.7539 133.73 32.4609 133.98 32.1016C134.23 31.75 134.48 31.3789 134.73 30.9883C134.98 30.5977 135.195 30.2305 135.375 29.8867C134.141 29.3164 133.059 28.5742 132.129 27.6602C131.207 26.7461 130.488 25.7148 129.973 24.5664C129.465 23.418 129.211 22.2031 129.211 20.9219C129.211 19.4453 129.551 18.0625 130.23 16.7734C130.918 15.4844 131.867 14.3555 133.078 13.3867C134.297 12.4102 135.711 11.6484 137.32 11.1016C138.93 10.5469 140.656 10.2695 142.5 10.2695C144.344 10.2695 146.07 10.5469 147.68 11.1016C149.289 11.6484 150.699 12.4102 151.91 13.3867C153.129 14.3555 154.078 15.4844 154.758 16.7734C155.445 18.0625 155.789 19.4453 155.789 20.9219C155.789 22.1484 155.555 23.3086 155.086 24.4023C154.625 25.4883 153.965 26.4766 153.105 27.3672C152.254 28.2578 151.234 29.0234 150.047 29.6641C148.867 30.2969 147.555 30.7773 146.109 31.1055C144.664 31.4336 143.125 31.5742 141.492 31.5273C140.703 32.0977 139.852 32.6328 138.938 33.1328C138.023 33.6328 137.152 34.0391 136.324 34.3516C135.496 34.6641 134.82 34.8203 134.297 34.8203ZM135.527 32.875C135.879 32.7266 136.324 32.5 136.863 32.1953C137.402 31.8906 137.961 31.5508 138.539 31.1758C139.117 30.8086 139.645 30.4531 140.121 30.1094C140.34 29.9375 140.551 29.8125 140.754 29.7344C140.965 29.6484 141.191 29.6055 141.434 29.6055C141.668 29.6133 141.875 29.6211 142.055 29.6289C142.234 29.6289 142.383 29.6289 142.5 29.6289C144.078 29.6289 145.555 29.4023 146.93 28.9492C148.305 28.4961 149.508 27.8711 150.539 27.0742C151.578 26.2773 152.391 25.3516 152.977 24.2969C153.562 23.2422 153.855 22.1172 153.855 20.9219C153.855 19.7188 153.562 18.5938 152.977 17.5469C152.391 16.4922 151.578 15.5664 150.539 14.7695C149.508 13.9648 148.305 13.3359 146.93 12.8828C145.555 12.4297 144.078 12.2031 142.5 12.2031C140.922 12.2031 139.445 12.4297 138.07 12.8828C136.695 13.3359 135.488 13.9648 134.449 14.7695C133.418 15.5664 132.609 16.4922 132.023 17.5469C131.445 18.5938 131.156 19.7188 131.156 20.9219C131.156 21.9609 131.383 22.9492 131.836 23.8867C132.289 24.8242 132.945 25.6836 133.805 26.4648C134.672 27.2383 135.719 27.9102 136.945 28.4805C137.32 28.6602 137.539 28.8789 137.602 29.1367C137.664 29.3945 137.613 29.6758 137.449 29.9805C137.246 30.3555 136.945 30.8086 136.547 31.3398C136.148 31.8789 135.785 32.3516 135.457 32.7578C135.426 32.7969 135.418 32.8281 135.434 32.8516C135.449 32.8828 135.48 32.8906 135.527 32.875ZM137.039 22.7383C136.562 22.7383 136.156 22.5703 135.82 22.2344C135.492 21.8984 135.328 21.4961 135.328 21.0273C135.328 20.5586 135.492 20.1562 135.82 19.8203C136.156 19.4844 136.562 19.3164 137.039 19.3164C137.5 19.3164 137.898 19.4844 138.234 19.8203C138.57 20.1562 138.738 20.5586 138.738 21.0273C138.738 21.4961 138.57 21.8984 138.234 22.2344C137.906 22.5703 137.508 22.7383 137.039 22.7383ZM142.5 22.7383C142.031 22.7383 141.629 22.5703 141.293 22.2344C140.965 21.8984 140.801 21.4961 140.801 21.0273C140.801 20.5586 140.965 20.1562 141.293 19.8203C141.629 19.4844 142.031 19.3164 142.5 19.3164C142.969 19.3164 143.371 19.4844 143.707 19.8203C144.043 20.1562 144.211 20.5586 144.211 21.0273C144.211 21.4961 144.043 21.8984 143.707 22.2344C143.371 22.5703 142.969 22.7383 142.5 22.7383ZM147.973 22.7383C147.504 22.7383 147.102 22.5703 146.766 22.2344C146.43 21.8984 146.262 21.4961 146.262 21.0273C146.262 20.5586 146.43 20.1562 146.766 19.8203C147.102 19.4844 147.504 19.3164 147.973 19.3164C148.441 19.3164 148.84 19.4844 149.168 19.8203C149.504 20.1562 149.672 20.5586 149.672 21.0273C149.672 21.4961 149.504 21.8984 149.168 22.2344C148.84 22.5703 148.441 22.7383 147.973 22.7383Z" fill="white" fill-opacity="0.42"/>
<path d="M133.878 56.192C132.006 56.192 129.954 54.848 129.954 51.812C129.954 48.764 132.006 47.408 133.878 47.408C135.606 47.408 137.286 48.428 137.634 50.768L136.398 50.9C136.122 49.472 135.366 48.488 133.878 48.488C132.162 48.488 131.178 49.928 131.178 51.812C131.178 53.684 132.162 55.112 133.878 55.112C135.366 55.112 136.134 54.236 136.41 52.772L137.634 52.892C137.286 55.232 135.606 56.192 133.878 56.192ZM142.999 52.112C142.999 51.08 142.495 50.84 141.895 50.84C141.175 50.84 140.371 51.356 140.371 53.168V56H139.147V47.564H140.371V51.188C140.647 50.36 141.295 49.808 142.339 49.808C143.575 49.808 144.223 50.648 144.223 52.052V56H142.999V52.112ZM147.755 56.18C146.747 56.18 145.739 55.568 145.739 54.404C145.739 53.048 146.807 52.592 148.319 52.376C149.039 52.268 149.867 52.208 149.603 51.44C149.435 50.948 148.799 50.84 148.355 50.84C147.479 50.84 147.059 51.272 147.059 51.872L145.847 51.752C145.847 50.744 146.759 49.808 148.355 49.808C149.711 49.808 150.815 50.408 150.815 51.968V56H149.651V54.776C149.387 55.556 148.727 56.18 147.755 56.18ZM146.963 54.368C146.963 54.824 147.395 55.148 147.935 55.148C148.811 55.148 149.651 54.512 149.651 53.096V52.76C149.435 53.048 148.931 53.204 148.175 53.324C147.347 53.456 146.963 53.84 146.963 54.368ZM154.656 56C153.552 56 152.952 55.52 152.952 54.308V51.032H151.932V50H152.952V48.188L154.068 48.068V50H155.628V51.032H154.068V54.104C154.068 54.848 154.296 54.968 154.92 54.968H155.628V56H154.656Z" fill="white" fill-opacity="0.72"/>
<path d="M225.406 11.75H222.406C221.301 11.75 220.406 12.6454 220.406 13.75V16.75M220.406 29.25V32.25C220.406 33.3546 221.301 34.25 222.406 34.25H225.406M237.906 34.25H240.906C242.01 34.25 242.906 33.3546 242.906 32.25V29.25M242.906 16.75V13.75C242.906 12.6454 242.01 11.75 240.906 11.75H237.906" stroke="white" stroke-opacity="0.42" stroke-width="2" stroke-linecap="round" stroke-linejoin="round"/>
<rect x="225.406" y="16.75" width="3.75" height="3.75" stroke="white" stroke-opacity="0.42" stroke-width="2" stroke-linecap="round" stroke-linejoin="round"/>
<rect x="234.156" y="16.75" width="3.75" height="3.75" stroke="white" stroke-opacity="0.42" stroke-width="2" stroke-linecap="round" stroke-linejoin="round"/>
<rect x="225.406" y="25.5" width="3.75" height="3.75" stroke="white" stroke-opacity="0.42" stroke-width="2" stroke-linecap="round" stroke-linejoin="round"/>
<path d="M234.156 25.5L236.031 27.375M237.906 29.25L236.031 27.375M236.031 27.375L237.906 25.5M236.031 27.375L234.156 29.25" stroke="white" stroke-opacity="0.42" stroke-width="2" stroke-linecap="round" stroke-linejoin="round"/>
<path d="M212.021 56.192C210.077 56.192 208.757 55.016 208.757 52.748L209.981 52.628C209.945 54.356 210.773 55.16 212.021 55.16C213.185 55.16 213.773 54.512 213.773 53.672C213.773 52.64 213.113 52.28 211.769 51.968C209.885 51.512 209.129 50.78 209.129 49.58C209.129 48.368 210.197 47.408 211.817 47.408C213.533 47.408 214.589 48.344 214.589 49.964L213.365 50.084C213.365 49.016 212.729 48.44 211.817 48.44C210.941 48.44 210.341 48.836 210.341 49.58C210.341 50.336 210.857 50.684 212.045 50.972C213.881 51.416 214.997 52.064 214.997 53.624C214.997 55.136 213.869 56.192 212.021 56.192ZM219.101 56.192C217.601 56.192 216.161 55.196 216.161 53.024C216.161 50.852 217.601 49.808 219.101 49.808C220.553 49.808 221.585 50.444 221.849 52.22L220.637 52.34C220.445 51.416 220.049 50.84 219.101 50.84C217.925 50.84 217.385 51.848 217.385 53.024C217.385 54.224 217.925 55.16 219.101 55.16C220.013 55.16 220.445 54.668 220.637 53.732L221.849 53.852C221.597 55.604 220.541 56.192 219.101 56.192ZM224.903 56.18C223.895 56.18 222.887 55.568 222.887 54.404C222.887 53.048 223.955 52.592 225.467 52.376C226.187 52.268 227.015 52.208 226.751 51.44C226.583 50.948 225.947 50.84 225.503 50.84C224.627 50.84 224.207 51.272 224.207 51.872L222.995 51.752C222.995 50.744 223.907 49.808 225.503 49.808C226.859 49.808 227.963 50.408 227.963 51.968V56H226.799V54.776C226.535 55.556 225.875 56.18 224.903 56.18ZM224.111 54.368C224.111 54.824 224.543 55.148 225.083 55.148C225.959 55.148 226.799 54.512 226.799 53.096V52.76C226.583 53.048 226.079 53.204 225.323 53.324C224.495 53.456 224.111 53.84 224.111 54.368ZM233.448 52.112C233.448 51.08 232.944 50.84 232.344 50.84C231.624 50.84 230.82 51.356 230.82 53.168V56H229.596V50H230.82V51.188C231.096 50.36 231.744 49.808 232.788 49.808C234.024 49.808 234.672 50.648 234.672 52.052V56H233.448V52.112ZM246.189 56.792L245.181 55.532C244.521 55.976 243.741 56.192 242.961 56.192C240.993 56.192 238.989 54.836 238.989 51.8C238.989 48.764 240.993 47.408 242.961 47.408C244.917 47.408 246.909 48.764 246.909 51.8C246.909 53.144 246.513 54.164 245.913 54.872L247.461 56.792H246.189ZM240.225 51.8C240.225 53.636 241.197 55.112 242.961 55.112C243.549 55.112 244.053 54.944 244.461 54.644L242.205 51.848H243.465L245.133 53.912C245.493 53.336 245.673 52.604 245.673 51.8C245.673 49.964 244.701 48.488 242.961 48.488C241.209 48.488 240.225 49.964 240.225 51.8ZM248.618 56V47.6H251.402C252.122 47.6 254.318 47.828 254.318 49.988C254.318 51.2 253.622 51.776 252.686 51.968C253.946 52.1 254.21 52.568 254.318 54.092L254.438 56H253.202L253.07 53.912C253.01 52.928 252.914 52.376 251.654 52.376H249.842V56H248.618ZM249.842 51.332H251.162C252.398 51.332 253.094 51.044 253.094 49.988C253.094 48.944 252.398 48.632 251.162 48.632H249.842V51.332Z" fill="white" fill-opacity="0.6"/>
<path d="M330.889 34.25L329.913 34.4669C330.014 34.9245 330.42 35.25 330.889 35.25V34.25ZM335.889 34.25V35.25C336.358 35.25 336.763 34.9245 336.865 34.4669L335.889 34.25ZM335.889 11.75L336.865 11.5331C336.763 11.0755 336.358 10.75 335.889 10.75V11.75ZM330.889 11.75V10.75C330.42 10.75 330.014 11.0755 329.913 11.5331L330.889 11.75ZM322.396 26.4599L321.72 25.723C321.375 26.0398 321.296 26.554 321.53 26.9599L322.396 26.4599ZM324.896 30.7901L324.03 31.2901C324.264 31.696 324.749 31.8846 325.196 31.7439L324.896 30.7901ZM344.382 19.5401L345.058 20.277C345.403 19.9602 345.482 19.446 345.248 19.0401L344.382 19.5401ZM341.882 15.2099L342.748 14.7099C342.513 14.304 342.029 14.1153 341.581 14.2561L341.882 15.2099ZM324.896 15.2099L325.196 14.2561C324.749 14.1153 324.264 14.304 324.03 14.7099L324.896 15.2099ZM322.396 19.5401L321.53 19.04C321.296 19.446 321.375 19.9602 321.72 20.277L322.396 19.5401ZM341.882 30.7901L341.581 31.7439C342.029 31.8846 342.513 31.696 342.748 31.2901L341.882 30.7901ZM344.382 26.4599L345.248 26.9599C345.482 26.554 345.403 26.0398 345.058 25.723L344.382 26.4599ZM342.041 21.687L341.365 20.95C341.12 21.1749 341.003 21.5069 341.052 21.8358L342.041 21.687ZM342.041 24.313L341.052 24.1642C341.003 24.4931 341.12 24.8251 341.365 25.0499L342.041 24.313ZM338.851 29.8362L339.151 28.8823C338.833 28.7823 338.487 28.8471 338.226 29.0553L338.851 29.8362ZM336.578 31.1508L336.213 30.2196C335.903 30.341 335.674 30.6088 335.602 30.9339L336.578 31.1508ZM330.2 31.1508L331.176 30.9339C331.104 30.6088 330.875 30.341 330.565 30.2196L330.2 31.1508ZM327.927 29.8362L328.552 29.0553C328.291 28.8471 327.944 28.7822 327.627 28.8823L327.927 29.8362ZM324.737 24.3129L325.413 25.0499C325.658 24.825 325.775 24.493 325.726 24.1641L324.737 24.3129ZM324.737 21.6871L325.726 21.8359C325.775 21.5069 325.658 21.175 325.413 20.9501L324.737 21.6871ZM327.927 16.1638L327.627 17.1177C327.945 17.2177 328.291 17.1529 328.552 16.9447L327.927 16.1638ZM330.2 14.8492L330.565 15.7804C330.875 15.659 331.104 15.3912 331.176 15.0661L330.2 14.8492ZM338.851 16.1638L338.226 16.9447C338.487 17.1528 338.833 17.2177 339.151 17.1177L338.851 16.1638ZM336.578 14.8492L335.602 15.0661C335.674 15.3912 335.903 15.659 336.213 15.7804L336.578 14.8492ZM330.889 35.25H335.889V33.25H330.889V35.25ZM335.889 10.75H330.889V12.75H335.889V10.75ZM321.53 26.9599L324.03 31.2901L325.762 30.2901L323.262 25.9599L321.53 26.9599ZM345.248 19.0401L342.748 14.7099L341.016 15.7099L343.516 20.0401L345.248 19.0401ZM324.03 14.7099L321.53 19.04L323.262 20.0401L325.762 15.7099L324.03 14.7099ZM342.748 31.2901L345.248 26.9599L343.516 25.9599L341.016 30.2901L342.748 31.2901ZM341.052 21.8358C341.109 22.215 341.139 22.6037 341.139 23H343.139C343.139 22.5038 343.102 22.0156 343.03 21.5382L341.052 21.8358ZM342.717 22.4239L345.058 20.277L343.706 18.8031L341.365 20.95L342.717 22.4239ZM341.139 23C341.139 23.3963 341.109 23.785 341.052 24.1642L343.03 24.4618C343.102 23.9844 343.139 23.4962 343.139 23H341.139ZM345.058 25.723L342.717 23.5761L341.365 25.0499L343.706 27.1969L345.058 25.723ZM338.551 30.79L341.581 31.7439L342.182 29.8362L339.151 28.8823L338.551 30.79ZM338.226 29.0553C337.622 29.5388 336.944 29.9333 336.213 30.2196L336.942 32.082C337.864 31.7212 338.717 31.2245 339.476 30.617L338.226 29.0553ZM336.865 34.4669L337.554 31.3677L335.602 30.9339L334.913 34.0331L336.865 34.4669ZM329.224 31.3677L329.913 34.4669L331.865 34.0331L331.176 30.9339L329.224 31.3677ZM330.565 30.2196C329.834 29.9333 329.156 29.5388 328.552 29.0553L327.302 30.617C328.061 31.2245 328.914 31.7212 329.836 32.082L330.565 30.2196ZM325.196 31.7439L328.227 30.79L327.627 28.8823L324.596 29.8362L325.196 31.7439ZM325.726 24.1641C325.669 23.7849 325.639 23.3963 325.639 23H323.639C323.639 23.4962 323.676 23.9844 323.748 24.4617L325.726 24.1641ZM324.061 23.576L321.72 25.723L323.072 27.1969L325.413 25.0499L324.061 23.576ZM325.639 23C325.639 22.6037 325.669 22.215 325.726 21.8359L323.748 21.5383C323.676 22.0156 323.639 22.5038 323.639 23H325.639ZM321.72 20.277L324.061 22.424L325.413 20.9501L323.072 18.8031L321.72 20.277ZM328.227 15.21L325.196 14.2561L324.596 16.1638L327.627 17.1177L328.227 15.21ZM328.552 16.9447C329.156 16.4612 329.834 16.0667 330.565 15.7804L329.836 13.918C328.914 14.2788 328.061 14.7755 327.302 15.383L328.552 16.9447ZM329.913 11.5331L329.224 14.6323L331.176 15.0661L331.865 11.9669L329.913 11.5331ZM341.581 14.2561L338.551 15.2099L339.151 17.1177L342.182 16.1638L341.581 14.2561ZM336.213 15.7804C336.944 16.0667 337.622 16.4612 338.226 16.9447L339.476 15.383C338.716 14.7755 337.864 14.2788 336.942 13.918L336.213 15.7804ZM337.554 14.6323L336.865 11.5331L334.913 11.9669L335.602 15.0661L337.554 14.6323ZM336.139 23C336.139 24.5188 334.908 25.75 333.389 25.75V27.75C336.012 27.75 338.139 25.6234 338.139 23H336.139ZM333.389 25.75C331.87 25.75 330.639 24.5188 330.639 23H328.639C328.639 25.6234 330.766 27.75 333.389 27.75V25.75ZM330.639 23C330.639 21.4812 331.87 20.25 333.389 20.25V18.25C330.766 18.25 328.639 20.3766 328.639 23H330.639ZM333.389 20.25C334.908 20.25 336.139 21.4812 336.139 23H338.139C338.139 20.3766 336.012 18.25 333.389 18.25V20.25Z" fill="white" fill-opacity="0.72"/>
<path d="M313.907 56.192C311.963 56.192 310.643 55.016 310.643 52.748L311.867 52.628C311.831 54.356 312.659 55.16 313.907 55.16C315.071 55.16 315.659 54.512 315.659 53.672C315.659 52.64 314.999 52.28 313.655 51.968C311.771 51.512 311.015 50.78 311.015 49.58C311.015 48.368 312.083 47.408 313.703 47.408C315.419 47.408 316.475 48.344 316.475 49.964L315.251 50.084C315.251 49.016 314.615 48.44 313.703 48.44C312.827 48.44 312.227 48.836 312.227 49.58C312.227 50.336 312.743 50.684 313.931 50.972C315.767 51.416 316.883 52.064 316.883 53.624C316.883 55.136 315.755 56.192 313.907 56.192ZM320.95 56.192C319.51 56.192 318.046 55.232 318.046 53.024C318.046 50.828 319.51 49.808 320.95 49.808C322.39 49.808 323.626 50.828 323.626 53.024V53.276H319.27C319.27 54.32 319.87 55.16 320.95 55.16C322.03 55.16 322.306 54.536 322.402 54.14L323.602 54.26C323.422 55.46 322.39 56.192 320.95 56.192ZM319.27 52.388H322.462C322.462 51.704 322.03 50.84 320.95 50.84C319.87 50.84 319.27 51.704 319.27 52.388ZM327.045 56C325.941 56 325.341 55.52 325.341 54.308V51.032H324.321V50H325.341V48.188L326.457 48.068V50H328.017V51.032H326.457V54.104C326.457 54.848 326.685 54.968 327.309 54.968H328.017V56H327.045ZM331.615 56C330.511 56 329.911 55.52 329.911 54.308V51.032H328.891V50H329.911V48.188L331.027 48.068V50H332.587V51.032H331.027V54.104C331.027 54.848 331.255 54.968 331.879 54.968H332.587V56H331.615ZM334.179 56V50H335.403V56H334.179ZM334.095 49.04V47.768H335.487V49.04H334.095ZM341.099 52.112C341.099 51.08 340.595 50.84 339.995 50.84C339.275 50.84 338.471 51.356 338.471 53.168V56H337.247V50H338.471V51.188C338.747 50.36 339.395 49.808 340.439 49.808C341.675 49.808 342.323 50.648 342.323 52.052V56H341.099V52.112ZM346.614 58.592C344.646 58.592 343.902 57.38 343.902 56.708L345.126 56.588C345.162 56.948 345.606 57.56 346.614 57.56C347.61 57.56 348.354 57.164 348.354 55.772V54.92C348.066 55.7 347.418 56.192 346.446 56.192C344.694 56.192 343.722 54.74 343.722 53.024C343.722 51.308 344.694 49.808 346.446 49.808C347.418 49.808 348.066 50.324 348.354 51.116V50H349.518V55.652C349.518 57.644 348.606 58.592 346.614 58.592ZM344.946 53.024C344.946 54.548 345.774 55.16 346.65 55.16C347.526 55.16 348.354 54.524 348.354 53.06C348.354 51.512 347.526 50.84 346.65 50.84C345.726 50.84 344.946 51.5 344.946 53.024ZM353.816 56.192C352.376 56.192 351.032 55.412 351.032 53.816L352.196 53.696C352.196 54.692 353.048 55.16 353.816 55.16C354.572 55.16 355.148 54.884 355.148 54.284C355.148 53.648 354.596 53.48 353.984 53.396L353.06 53.276C352.112 53.144 351.368 52.532 351.368 51.572C351.368 50.456 352.412 49.808 353.732 49.808C355.052 49.808 356.06 50.528 356.06 51.692L354.896 51.812C354.896 51.176 354.452 50.84 353.732 50.84C353.096 50.84 352.58 51.092 352.58 51.596C352.58 52.016 352.892 52.22 353.528 52.304L354.344 52.424C355.364 52.556 356.372 53.072 356.372 54.272C356.372 55.472 355.256 56.192 353.816 56.192Z" fill="white" fill-opacity="0.72"/>
<rect x="128" y="83.1819" width="134" height="5" rx="2.5" fill="white" fill-opacity="0.16"/>
</g>
<defs>
<filter id="filter0_b_603_2787" x="-128" y="-128" width="646" height="352.182" filterUnits="userSpaceOnUse" color-interpolation-filters="sRGB">
<feFlood flood-opacity="0" result="BackgroundImageFix"/>
<feGaussianBlur in="BackgroundImageFix" stdDeviation="64"/>
<feComposite in2="SourceAlpha" operator="in" result="effect1_backgroundBlur_603_2787"/>
<feBlend mode="normal" in="SourceGraphic" in2="effect1_backgroundBlur_603_2787" result="shape"/>
</filter>
</defs>
</svg>
