<svg width="31" height="30" viewBox="0 0 31 30" fill="none" xmlns="http://www.w3.org/2000/svg">
<path d="M9.40555 3.75H6.40555C5.30098 3.75 4.40555 4.64543 4.40555 5.75V8.75M4.40555 21.25V24.25C4.40555 25.3546 5.30098 26.25 6.40555 26.25H9.40555M21.9055 26.25H24.9055C26.0101 26.25 26.9055 25.3546 26.9055 24.25V21.25M26.9055 8.75V5.75C26.9055 4.64543 26.0101 3.75 24.9055 3.75H21.9055" stroke="white" stroke-opacity="0.42" stroke-width="2" stroke-linecap="round" stroke-linejoin="round"/>
<rect x="9.40555" y="8.75" width="3.75" height="3.75" stroke="white" stroke-opacity="0.42" stroke-width="2" stroke-linecap="round" stroke-linejoin="round"/>
<rect x="18.1555" y="8.75" width="3.75" height="3.75" stroke="white" stroke-opacity="0.42" stroke-width="2" stroke-linecap="round" stroke-linejoin="round"/>
<rect x="9.40555" y="17.5" width="3.75" height="3.75" stroke="white" stroke-opacity="0.42" stroke-width="2" stroke-linecap="round" stroke-linejoin="round"/>
<path d="M18.1555 17.5L20.0305 19.375M21.9055 21.25L20.0305 19.375M20.0305 19.375L21.9055 17.5M20.0305 19.375L18.1555 21.25" stroke="white" stroke-opacity="0.42" stroke-width="2" stroke-linecap="round" stroke-linejoin="round"/>
</svg>
