<svg width="25" height="26" viewBox="0 0 25 26" fill="none" xmlns="http://www.w3.org/2000/svg">
<path d="M9.88898 24.25L8.9128 24.4669C9.01447 24.9245 9.42029 25.25 9.88898 25.25V24.25ZM14.889 24.25V25.25C15.3577 25.25 15.7635 24.9245 15.8652 24.4669L14.889 24.25ZM14.889 1.75L15.8652 1.53307C15.7635 1.07553 15.3577 0.75 14.889 0.75V1.75ZM9.88898 1.75V0.75C9.42029 0.75 9.01447 1.07553 8.9128 1.53307L9.88898 1.75ZM1.39615 16.4599L0.720188 15.723C0.374786 16.0398 0.295774 16.554 0.530123 16.9599L1.39615 16.4599ZM3.89615 20.7901L3.03012 21.2901C3.26447 21.696 3.7493 21.8846 4.19637 21.7439L3.89615 20.7901ZM23.3817 9.54005L24.0577 10.277C24.4031 9.96017 24.4821 9.44596 24.2477 9.04005L23.3817 9.54005ZM20.8817 5.20992L21.7477 4.70992C21.5134 4.30402 21.0286 4.11534 20.5815 4.25606L20.8817 5.20992ZM3.89615 5.20992L4.19638 4.25605C3.7493 4.11534 3.26447 4.30402 3.03012 4.70992L3.89615 5.20992ZM1.39615 9.54005L0.530123 9.04005C0.295774 9.44595 0.374786 9.96017 0.720188 10.277L1.39615 9.54005ZM20.8817 20.7901L20.5815 21.7439C21.0286 21.8846 21.5134 21.696 21.7477 21.2901L20.8817 20.7901ZM23.3817 16.4599L24.2477 16.9599C24.4821 16.554 24.4031 16.0398 24.0577 15.723L23.3817 16.4599ZM21.0411 11.687L20.3652 10.95C20.12 11.1749 20.0028 11.5069 20.0523 11.8358L21.0411 11.687ZM21.0411 14.313L20.0523 14.1642C20.0028 14.4931 20.1201 14.8251 20.3652 15.0499L21.0411 14.313ZM17.8511 19.8362L18.1513 18.8823C17.8335 18.7823 17.4866 18.8471 17.2264 19.0553L17.8511 19.8362ZM15.5777 21.1508L15.2131 20.2196C14.903 20.341 14.6737 20.6088 14.6015 20.9339L15.5777 21.1508ZM9.20028 21.1508L10.1765 20.9339C10.1042 20.6088 9.87492 20.341 9.56484 20.2196L9.20028 21.1508ZM6.92683 19.8362L7.55155 19.0553C7.29133 18.8471 6.94449 18.7822 6.6266 18.8823L6.92683 19.8362ZM3.73683 14.3129L4.41279 15.0499C4.6579 14.825 4.77519 14.493 4.7257 14.1641L3.73683 14.3129ZM3.73683 11.6871L4.7257 11.8359C4.77519 11.5069 4.65791 11.175 4.41279 10.9501L3.73683 11.6871ZM6.92685 6.16383L6.62663 7.11769C6.94451 7.21775 7.29135 7.15287 7.55157 6.94468L6.92685 6.16383ZM9.20028 4.84919L9.56484 5.78037C9.87492 5.65897 10.1042 5.39119 10.1765 5.06612L9.20028 4.84919ZM17.8511 6.1638L17.2264 6.94466C17.4866 7.15285 17.8334 7.21772 18.1513 7.11767L17.8511 6.1638ZM15.5777 4.84919L14.6015 5.06612C14.6737 5.39119 14.903 5.65897 15.2131 5.78037L15.5777 4.84919ZM9.88898 25.25H14.889V23.25H9.88898V25.25ZM14.889 0.75H9.88898V2.75H14.889V0.75ZM0.530123 16.9599L3.03012 21.2901L4.76217 20.2901L2.26217 15.9599L0.530123 16.9599ZM24.2477 9.04005L21.7477 4.70992L20.0157 5.70992L22.5157 10.0401L24.2477 9.04005ZM3.03012 4.70992L0.530123 9.04005L2.26217 10.0401L4.76218 5.70992L3.03012 4.70992ZM21.7477 21.2901L24.2477 16.9599L22.5157 15.9599L20.0157 20.2901L21.7477 21.2901ZM20.0523 11.8358C20.1093 12.215 20.139 12.6037 20.139 13H22.139C22.139 12.5038 22.1018 12.0156 22.03 11.5382L20.0523 11.8358ZM21.7171 12.4239L24.0577 10.277L22.7058 8.80311L20.3652 10.95L21.7171 12.4239ZM20.139 13C20.139 13.3963 20.1093 13.785 20.0523 14.1642L22.03 14.4618C22.1018 13.9844 22.139 13.4962 22.139 13H20.139ZM24.0577 15.723L21.7171 13.5761L20.3652 15.0499L22.7058 17.1969L24.0577 15.723ZM17.5509 20.79L20.5815 21.7439L21.1819 19.8362L18.1513 18.8823L17.5509 20.79ZM17.2264 19.0553C16.6221 19.5388 15.9444 19.9333 15.2131 20.2196L15.9423 22.082C16.8638 21.7212 17.7165 21.2245 18.4758 20.617L17.2264 19.0553ZM15.8652 24.4669L16.5539 21.3677L14.6015 20.9339L13.9128 24.0331L15.8652 24.4669ZM8.22409 21.3677L8.9128 24.4669L10.8652 24.0331L10.1765 20.9339L8.22409 21.3677ZM9.56484 20.2196C8.83357 19.9333 8.15586 19.5388 7.55155 19.0553L6.30211 20.617C7.06144 21.2245 7.91414 21.7212 8.83571 22.082L9.56484 20.2196ZM4.19637 21.7439L7.22706 20.79L6.6266 18.8823L3.59592 19.8362L4.19637 21.7439ZM4.7257 14.1641C4.66864 13.7849 4.63898 13.3963 4.63898 13H2.63898C2.63898 13.4962 2.67613 13.9844 2.74796 14.4617L4.7257 14.1641ZM3.06087 13.576L0.720188 15.723L2.07211 17.1969L4.41279 15.0499L3.06087 13.576ZM4.63898 13C4.63898 12.6037 4.66864 12.215 4.7257 11.8359L2.74797 11.5383C2.67613 12.0156 2.63898 12.5038 2.63898 13H4.63898ZM0.720188 10.277L3.06087 12.424L4.41279 10.9501L2.07211 8.80311L0.720188 10.277ZM7.22708 5.20996L4.19638 4.25605L3.59592 6.16379L6.62663 7.11769L7.22708 5.20996ZM7.55157 6.94468C8.15588 6.4612 8.83358 6.06666 9.56484 5.78037L8.83571 3.91801C7.91415 4.27881 7.06146 4.77548 6.30214 5.38297L7.55157 6.94468ZM8.9128 1.53307L8.22409 4.63226L10.1765 5.06612L10.8652 1.96693L8.9128 1.53307ZM20.5815 4.25606L17.5509 5.20994L18.1513 7.11767L21.1819 6.16379L20.5815 4.25606ZM15.2131 5.78037C15.9444 6.06666 16.6221 6.46119 17.2264 6.94466L18.4758 5.38295C17.7165 4.77547 16.8638 4.27881 15.9423 3.91801L15.2131 5.78037ZM16.5539 4.63226L15.8652 1.53307L13.9128 1.96693L14.6015 5.06612L16.5539 4.63226ZM15.1389 13C15.1389 14.5188 13.9077 15.75 12.3889 15.75V17.75C15.0122 17.75 17.1389 15.6234 17.1389 13H15.1389ZM12.3889 15.75C10.8701 15.75 9.63889 14.5188 9.63889 13H7.63889C7.63889 15.6234 9.76553 17.75 12.3889 17.75V15.75ZM9.63889 13C9.63889 11.4812 10.8701 10.25 12.3889 10.25V8.25C9.76553 8.25 7.63889 10.3766 7.63889 13H9.63889ZM12.3889 10.25C13.9077 10.25 15.1389 11.4812 15.1389 13H17.1389C17.1389 10.3766 15.0122 8.25 12.3889 8.25V10.25Z" fill="white" fill-opacity="0.72"/>
</svg>
